<?xml version="1.0" encoding="UTF-8"?>
<svg version="1.1" xmlns="http://www.w3.org/2000/svg" width="666" height="375">
<path d="M0 0 C2.0625 1.0625 2.0625 1.0625 4.125 3.25 C12.72233561 12.23576945 27.85684107 17.03542122 40.1262207 17.60498047 C51.76064565 17.72150946 62.95494947 14.81911818 73.0625 9.0625 C74.47549125 8.34686303 75.89221689 7.63855382 77.3125 6.9375 C77.93640625 6.62554687 78.5603125 6.31359375 79.203125 5.9921875 C81.15625 5.015625 83.109375 4.0390625 85.0625 3.0625 C85.15628484 17.70166819 85.2266454 32.34079617 85.26974869 46.98020458 C85.29030165 53.77881653 85.31828145 60.57724093 85.36425781 67.37573242 C85.40865527 73.94393003 85.43167789 80.51200648 85.44200897 87.08034706 C85.44936585 89.57882047 85.46373162 92.07728396 85.48542023 94.57567406 C85.69312923 119.50741765 85.69312923 119.50741765 81.0625 130.0625 C80.70372269 130.95876099 80.34494537 131.85502197 79.97529602 132.77844238 C79.0163597 135.14454431 77.97231219 137.44505604 76.875 139.75 C76.29733887 140.96743896 76.29733887 140.96743896 75.70800781 142.20947266 C72.39797846 148.90335602 68.5314841 153.93532741 63.0625 159.0625 C62.155 160.01125 61.2475 160.96 60.3125 161.9375 C58.0625 164.0625 58.0625 164.0625 55.4375 166.125 C53.04459807 167.89994167 53.04459807 167.89994167 51.66796875 170.0390625 C49.90819668 172.25697474 48.51462727 173.11996824 46 174.375 C42.59470736 176.17071702 39.49014615 178.11317771 36.375 180.375 C25.9580995 187.7583193 11.68988209 197.66176915 -1.52734375 198.16015625 C-3.85698578 197.71781916 -5.7661905 197.01557037 -7.9375 196.0625 C-8.90300781 195.7015625 -9.86851562 195.340625 -10.86328125 194.96875 C-17.00675715 192.58174567 -22.46947948 189.70784702 -27.9375 186.0625 C-28.69160156 185.61132812 -29.44570313 185.16015625 -30.22265625 184.6953125 C-34.12849 182.34619234 -37.93999811 179.85575443 -41.765625 177.37890625 C-42.35859375 176.99605469 -42.9515625 176.61320313 -43.5625 176.21875 C-44.13419922 175.8487085 -44.70589844 175.47866699 -45.29492188 175.09741211 C-46.78493562 174.15862372 -48.31279329 173.28057922 -49.84375 172.41015625 C-51.9375 171.0625 -51.9375 171.0625 -52.4375 169 C-52.685 168.0409375 -52.685 168.0409375 -52.9375 167.0625 C-54.6010479 166.38808869 -56.26816942 165.7224679 -57.9375 165.0625 C-60 162.6875 -60 162.6875 -61.9375 160.0625 C-62.68 159.340625 -63.4225 158.61875 -64.1875 157.875 C-65.9375 156.0625 -65.9375 156.0625 -65.9375 154.0625 C-66.515 153.85625 -67.0925 153.65 -67.6875 153.4375 C-73.44120332 149.92134797 -76.17615219 141.95115739 -78.9375 136.0625 C-79.38609375 135.10859375 -79.8346875 134.1546875 -80.296875 133.171875 C-80.73515625 132.18703125 -81.1734375 131.2021875 -81.625 130.1875 C-82.02074219 129.30320313 -82.41648438 128.41890625 -82.82421875 127.5078125 C-85.65022051 118.76208075 -86.23182415 109.82641299 -86.16455078 100.69433594 C-86.16484283 99.62944443 -86.16513489 98.56455292 -86.16543579 97.46739197 C-86.16405715 93.99379954 -86.14856576 90.52042934 -86.1328125 87.046875 C-86.12907715 84.6202201 -86.12623265 82.19356369 -86.12423706 79.76690674 C-86.11664172 73.41465 -86.09702882 67.06248635 -86.0748291 60.71026611 C-86.05428193 54.21440896 -86.04521645 47.71853661 -86.03515625 41.22265625 C-86.01377875 28.50256471 -85.98008341 15.78253733 -85.9375 3.0625 C-85.18082031 3.52785156 -84.42414063 3.99320312 -83.64453125 4.47265625 C-81.09402211 5.97057432 -78.52710415 7.1306951 -75.79296875 8.25 C-73.93330175 9.06433839 -72.21154162 10.01484891 -70.4375 11 C-56.34263896 18.02032502 -40.91264244 19.15008562 -25.875 14.875 C-25.18486816 14.67914307 -24.49473633 14.48328613 -23.78369141 14.28149414 C-18.7538049 12.68463677 -15.12612354 10.26071009 -10.9375 7.0625 C-9.6071875 6.2890625 -9.6071875 6.2890625 -8.25 5.5 C-5.81210997 4.12846306 -5.81210997 4.12846306 -3.875 1.8125 C-1.9375 0.0625 -1.9375 0.0625 0 0 Z " fill="#B83C2F" transform="translate(332.9375,64.9375)"/>
<path d="M0 0 C17 0 17 0 21 3 C23.01595337 9.04786011 23.00616275 16.911698 20.8125 22.9375 C19.62419342 26.03159557 19.62419342 26.03159557 21.4296875 28.7578125 C24.49594313 35.0886388 23.80414074 43.43721776 22.3125 50.25 C21 53 21 53 16 55 C10.72 55 5.44 55 0 55 C0 36.85 0 18.7 0 0 Z " fill="#DCAD4D" transform="translate(322,144)"/>
<path d="M0 0 C2.79649825 1.71603302 5.22544674 3.59396802 7.75 5.6875 C17.44883616 12.15339077 29.01226298 13.16776273 40.34375 11 C46.91492515 9.31508329 52.11135458 7.41701829 57.19921875 2.859375 C58.75 1.6875 58.75 1.6875 61.75 1.6875 C61.81971393 12.33660647 61.87291956 22.98565805 61.90543652 33.63494682 C61.92104824 38.58060683 61.94220392 43.52610995 61.97631836 48.47167969 C62.00907271 53.25034234 62.02688676 58.0288547 62.03463173 62.807621 C62.0401465 64.62475065 62.05091509 66.4418727 62.06719017 68.25893784 C62.17870905 81.23349092 60.84976708 91.26478903 54.875 102.9375 C54.54886719 103.60523438 54.22273438 104.27296875 53.88671875 104.9609375 C49.14391889 114.37271932 41.60211139 122.00104434 32.75 127.6875 C32.09 127.6875 31.43 127.6875 30.75 127.6875 C30.75 128.3475 30.75 129.0075 30.75 129.6875 C29.31640625 130.76904297 29.31640625 130.76904297 27.3125 131.9296875 C26.58160156 132.35636719 25.85070312 132.78304687 25.09765625 133.22265625 C24.32292969 133.66480469 23.54820312 134.10695312 22.75 134.5625 C21.63431641 135.21412109 21.63431641 135.21412109 20.49609375 135.87890625 C2.42166107 146.3463603 2.42166107 146.3463603 -5.25 145.6875 C-7.88848779 144.6520532 -10.29780179 143.28934866 -12.75 141.875 C-14.03089067 141.15951259 -15.31213639 140.44466039 -16.59375 139.73046875 C-17.21080811 139.38145508 -17.82786621 139.03244141 -18.46362305 138.67285156 C-20.09223827 137.77452014 -21.75770856 136.94384547 -23.42578125 136.12109375 C-34.87778331 130.30797514 -46.18378239 121.44224176 -53.25 110.6875 C-53.76175781 109.96691406 -54.27351563 109.24632812 -54.80078125 108.50390625 C-61.78309081 98.50690224 -65.59480897 88.3993391 -65.47705078 76.16015625 C-65.47734283 75.34944168 -65.47763489 74.53872711 -65.47793579 73.70344543 C-65.47655431 71.05218399 -65.46104944 68.4012117 -65.4453125 65.75 C-65.44157816 63.90055495 -65.43873318 62.0511079 -65.43673706 60.20166016 C-65.42913377 55.3552292 -65.40951392 50.50891984 -65.3873291 45.66253662 C-65.36679922 40.70863489 -65.35772012 35.75471334 -65.34765625 30.80078125 C-65.32626469 21.09630101 -65.29216898 11.39191065 -65.25 1.6875 C-60.49353138 3.54396719 -56.0120858 5.81392565 -51.50976562 8.20898438 C-42.95804318 12.61101855 -32.21825101 13.06482445 -22.875 10.875 C-16.91999164 8.9242214 -12.46096787 6.94601775 -7.6875 2.875 C-3.67578734 -0.35344109 -3.67578734 -0.35344109 0 0 Z M-2.25 1.6875 C-3.301875 2.50154297 -3.301875 2.50154297 -4.375 3.33203125 C-15.86285237 11.99474601 -25.86259706 14.5683614 -40.25 13.6875 C-47.73746963 12.60740047 -53.45663848 10.44953587 -59.5078125 5.89453125 C-61.17075314 4.49766751 -61.17075314 4.49766751 -63.25 4.6875 C-63.343018 15.05853296 -63.41392558 25.42946533 -63.45724869 35.80083179 C-63.47805031 40.61761612 -63.50623095 45.4341133 -63.55175781 50.25073242 C-63.59548214 54.90621925 -63.61919284 59.56143132 -63.62950897 64.21710777 C-63.63685292 65.98598233 -63.65119299 67.75484326 -63.67292023 69.52359962 C-63.78862441 79.34053934 -63.62625351 87.65785942 -59.25 96.6875 C-58.92864075 97.41278397 -58.60728149 98.13806793 -58.27618408 98.8853302 C-48.38495077 120.87678614 -26.92985129 134.05064642 -5.55859375 143.2265625 C2.42125096 144.81983099 8.82464427 140.35063788 15.5625 136.625 C17.10647461 135.80225586 17.10647461 135.80225586 18.68164062 134.96289062 C36.22471422 125.38688018 50.89717898 111.81310049 57.75 92.6875 C59.3451163 87.11098504 60.03484916 82.21732786 59.97705078 76.43554688 C59.97734283 75.65409302 59.97763489 74.87263916 59.97793579 74.06750488 C59.97655505 71.51363578 59.9610538 68.96006741 59.9453125 66.40625 C59.94157789 64.62406575 59.93873304 62.84187943 59.93673706 61.05969238 C59.92913585 56.39081051 59.90951785 51.72205495 59.8873291 47.05322266 C59.86679468 42.28029081 59.85771916 37.50733837 59.84765625 32.734375 C59.82626837 23.38536146 59.79217524 14.03644127 59.75 4.6875 C56.39542178 6.00236679 53.28330294 7.45518668 50.125 9.1875 C40.3035734 14.12003869 28.4259429 15.35723183 17.75 12.625 C12.73947809 10.96016205 8.54646294 8.25798873 4.1953125 5.30859375 C2.09203722 3.91424992 0.03188449 2.75414833 -2.25 1.6875 Z " fill="#E28757" transform="translate(333.25,91.3125)"/>
<path d="M0 0 C0.78117188 -0.020625 1.56234375 -0.04125 2.3671875 -0.0625 C8.19918015 -0.10244516 8.19918015 -0.10244516 10.31103516 1.64550781 C12.9971438 4.92553494 12.78927673 7.52124512 12.8125 11.6875 C12.82667969 12.84121094 12.84085937 13.99492187 12.85546875 15.18359375 C12.625 18.25 12.625 18.25 10.625 21.25 C11.35589844 22.28833984 11.35589844 22.28833984 12.1015625 23.34765625 C14.74645951 28.38652413 14.14132419 33.69602627 13.625 39.25 C12.49396223 42.58656141 11.86978863 44.37924641 9 46.38671875 C5.6416526 47.60743384 2.3955984 47.46151754 -1.125 47.375 C-1.82238281 47.36597656 -2.51976562 47.35695313 -3.23828125 47.34765625 C-4.95066958 47.32419888 -6.66288004 47.28833104 -8.375 47.25 C-9.5360884 44.92782321 -9.50173847 43.58438469 -9.50439453 40.99975586 C-9.50754669 40.12222153 -9.51069885 39.24468719 -9.51394653 38.34056091 C-9.5119223 37.39157425 -9.50989807 36.44258759 -9.5078125 35.46484375 C-9.50876923 34.49341934 -9.50972595 33.52199493 -9.51071167 32.52113342 C-9.51139283 30.46582983 -9.50954299 28.41052408 -9.50537109 26.35522461 C-9.5000162 23.19705411 -9.50532122 20.03902546 -9.51171875 16.88085938 C-9.51105807 14.88802052 -9.50977712 12.89518175 -9.5078125 10.90234375 C-9.50983673 9.95133286 -9.51186096 9.00032196 -9.51394653 8.02049255 C-9.51079437 7.14611038 -9.50764221 6.27172821 -9.50439453 5.37084961 C-9.50359894 4.59744736 -9.50280334 3.8240451 -9.50198364 3.02720642 C-9.17257113 -1.58310421 -3.51390784 0.02296672 0 0 Z M-0.375 7.25 C-0.375 10.55 -0.375 13.85 -0.375 17.25 C0.945 17.25 2.265 17.25 3.625 17.25 C3.625 13.95 3.625 10.65 3.625 7.25 C2.305 7.25 0.985 7.25 -0.375 7.25 Z M0.625 25.25 C-0.71401792 26.36126659 -0.71401792 26.36126659 -0.47265625 29.19140625 C-0.46105469 30.38636719 -0.44945312 31.58132813 -0.4375 32.8125 C-0.42847656 34.01003906 -0.41945312 35.20757812 -0.41015625 36.44140625 C-0.39855469 37.36824219 -0.38695312 38.29507813 -0.375 39.25 C1.275 38.92 2.925 38.59 4.625 38.25 C4.625 34.62 4.625 30.99 4.625 27.25 C3.305 26.59 1.985 25.93 0.625 25.25 Z " fill="#D13A1E" transform="translate(247.375,262.75)"/>
<path d="M0 0 C2.31 0 4.62 0 7 0 C8.98 5.28 10.96 10.56 13 16 C13.33 10.72 13.66 5.44 14 0 C16.64 0 19.28 0 22 0 C23.31074078 4.89431488 23.03073607 9.66126842 22.87890625 14.67578125 C22.85529526 15.6009404 22.83168427 16.52609955 22.80735779 17.47929382 C22.73100288 20.423863 22.64685775 23.3681503 22.5625 26.3125 C22.5092511 28.31313741 22.4565109 30.31378844 22.40429688 32.31445312 C22.27542597 37.20981271 22.13956966 42.10493424 22 47 C20.02 47 18.04 47 16 47 C13.58883496 41.02716478 11.23713768 35.04027175 9 29 C8.93941406 30.21558594 8.87882812 31.43117188 8.81640625 32.68359375 C8.73201668 34.26824228 8.6473679 35.85287702 8.5625 37.4375 C8.50352539 38.64116211 8.50352539 38.64116211 8.44335938 39.86914062 C8.11328125 45.88671875 8.11328125 45.88671875 7 47 C4 47.125 4 47.125 1 47 C0 46 0 46 -0.12025452 44.13340759 C-0.11803391 43.31844315 -0.11581329 42.5034787 -0.11352539 41.66381836 C-0.11344986 40.7429393 -0.11337433 39.82206024 -0.11329651 38.87327576 C-0.10813522 37.87224319 -0.10297394 36.87121063 -0.09765625 35.83984375 C-0.0962413 34.82024063 -0.09482635 33.80063751 -0.09336853 32.75013733 C-0.08775097 29.47922893 -0.0751955 26.20838787 -0.0625 22.9375 C-0.05748726 20.72591244 -0.05292396 18.51432382 -0.04882812 16.30273438 C-0.03777584 10.86846643 -0.02102063 5.43423803 0 0 Z " fill="#D82B0B" transform="translate(404,263)"/>
<path d="M0 0 C2.64 0 5.28 0 8 0 C8 5.94 8 11.88 8 18 C9.65 18 11.3 18 13 18 C13 12.06 13 6.12 13 0 C15.64 0 18.28 0 21 0 C21 15.51 21 31.02 21 47 C18.36 47 15.72 47 13 47 C13 40.07 13 33.14 13 26 C11.35 26 9.7 26 8 26 C8 32.93 8 39.86 8 47 C5.36 47 2.72 47 0 47 C0 31.49 0 15.98 0 0 Z " fill="#C93A1E" transform="translate(273,263)"/>
<path d="M0 0 C3.63 0 7.26 0 11 0 C11.14695312 1.15435547 11.14695312 1.15435547 11.296875 2.33203125 C12.14443274 8.84215146 13.04364801 15.34025664 14.0234375 21.83203125 C14.20422852 23.03174561 14.38501953 24.23145996 14.57128906 25.4675293 C14.93725032 27.88484219 15.30633588 30.30168439 15.67871094 32.71801758 C15.84918945 33.8448999 16.01966797 34.97178223 16.1953125 36.1328125 C16.35016113 37.14230957 16.50500977 38.15180664 16.66455078 39.19189453 C16.97946537 41.8281009 17.06250964 44.34849883 17 47 C14.66705225 47.04241723 12.33297433 47.04092937 10 47 C9 46 9 46 8.9375 42.9375 C8.9684375 41.4834375 8.9684375 41.4834375 9 40 C6.69 40 4.38 40 2 40 C2.020625 40.969375 2.04125 41.93875 2.0625 42.9375 C2 46 2 46 1 47 C-1.67058851 47.14115161 -4.32432238 47.04247107 -7 47 C-4.33333333 13 -4.33333333 13 0 0 Z M5 16 C4.34 21.28 3.68 26.56 3 32 C4.32 32 5.64 32 7 32 C7.02725341 30.2709226 7.04650987 28.54171824 7.0625 26.8125 C7.07410156 25.84957031 7.08570313 24.88664062 7.09765625 23.89453125 C7.00486622 21.14423487 6.62111685 18.67520409 6 16 C5.67 16 5.34 16 5 16 Z " fill="#DC2A0C" transform="translate(312,263)"/>
<path d="M0 0 C3.63 0 7.26 0 11 0 C11.86786804 4.76250283 12.72170345 9.52724915 13.56347656 14.29443359 C13.85079068 15.91065588 14.1417113 17.52624187 14.43652344 19.14111328 C16.14242539 28.50036445 17.50843769 37.43854672 17 47 C14.69 47 12.38 47 10 47 C9.67 44.69 9.34 42.38 9 40 C7.02 40 5.04 40 3 40 C2.67 42.31 2.34 44.62 2 47 C-0.64 47 -3.28 47 -6 47 C-5.39763353 37.59991265 -4.32510855 28.32377102 -3 19 C-2.82210938 17.71738281 -2.64421875 16.43476563 -2.4609375 15.11328125 C-1.75033987 10.03834144 -1.00541036 5.02705179 0 0 Z M5 19 C4.67 23.29 4.34 27.58 4 32 C5.32 32 6.64 32 8 32 C7.67 27.71 7.34 23.42 7 19 C6.34 19 5.68 19 5 19 Z " fill="#D52C0E" transform="translate(375,263)"/>
<path d="M0 0 C2.31 0 4.62 0 7 0 C8.83088877 8.27795453 9.94650498 16.59445466 11 25 C12.47503741 17.85394496 13.33389898 10.84052787 13.75390625 3.5546875 C14 1 14 1 15 0 C17.67058851 -0.14115161 20.32432238 -0.04247107 23 0 C22.09129202 11.47841654 20.84003105 22.82735979 18.9375 34.1875 C18.7631543 35.23228516 18.58880859 36.27707031 18.40917969 37.35351562 C17.13849162 44.72301677 17.13849162 44.72301677 16 47 C12.7 47 9.4 47 6 47 C4.18678329 39.87664865 3.31632592 32.73080984 2.5078125 25.44140625 C1.90512812 20.03497282 1.13894693 14.65403741 0.3671875 9.26953125 C0.01644836 6.14646038 -0.06669316 3.13934231 0 0 Z " fill="#CC4226" transform="translate(338,263)"/>
<path d="M0 0 C17 0 17 0 21 3 C23.01595337 9.04786011 23.00616275 16.911698 20.8125 22.9375 C19.62419342 26.03159557 19.62419342 26.03159557 21.4296875 28.7578125 C24.49594313 35.0886388 23.80414074 43.43721776 22.3125 50.25 C21 53 21 53 16 55 C10.72 55 5.44 55 0 55 C0 36.85 0 18.7 0 0 Z M1 1 C0.97526213 7.60196663 0.95712197 14.20390621 0.94506836 20.8059082 C0.94004281 23.05135569 0.93322135 25.29679992 0.92456055 27.54223633 C0.91241719 30.77165534 0.90675386 34.00103105 0.90234375 37.23046875 C0.89718246 38.23272995 0.89202118 39.23499115 0.88670349 40.2676239 C0.88662796 41.20822159 0.88655243 42.14881927 0.88647461 43.11791992 C0.884254 43.94176682 0.88203339 44.76561371 0.87974548 45.61442566 C1.0079421 48.15755317 1.44270612 50.51840931 2 53 C3.98 53 5.96 53 8 53 C8 52.01 8 51.02 8 50 C8.969375 50.020625 9.93875 50.04125 10.9375 50.0625 C13.87465895 50.35618499 13.87465895 50.35618499 15 49 C15.08685603 47.43827255 15.10702219 45.87270656 15.09765625 44.30859375 C15.09443359 43.36435547 15.09121094 42.42011719 15.08789062 41.44726562 C15.07951172 40.45404297 15.07113281 39.46082031 15.0625 38.4375 C15.05798828 37.44041016 15.05347656 36.44332031 15.04882812 35.41601562 C15.03700007 32.94395151 15.02051849 30.47200482 15 28 C12.69 28 10.38 28 8 28 C8 26.68 8 25.36 8 24 C9.7015625 23.5359375 9.7015625 23.5359375 11.4375 23.0625 C14.78775099 22.37075469 14.78775099 22.37075469 16 21 C16.39993686 18.31137336 16.75134543 15.63647783 17.0625 12.9375 C17.15337891 12.17888672 17.24425781 11.42027344 17.33789062 10.63867188 C17.5624374 8.7595699 17.78170978 6.87983905 18 5 C17.01 5 16.02 5 15 5 C15 5.66 15 6.32 15 7 C12.525 6.01 12.525 6.01 10 5 C10.33 3.68 10.66 2.36 11 1 C7.7 1 4.4 1 1 1 Z " fill="#DEB250" transform="translate(322,144)"/>
<path d="M0 0 C2.31 0 4.62 0 7 0 C8.31074078 4.89431488 8.03073607 9.66126842 7.87890625 14.67578125 C7.85529526 15.6009404 7.83168427 16.52609955 7.80735779 17.47929382 C7.73100288 20.423863 7.64685775 23.3681503 7.5625 26.3125 C7.5092511 28.31313741 7.4565109 30.31378844 7.40429688 32.31445312 C7.27542597 37.20981271 7.13956966 42.10493424 7 47 C5.02 47 3.04 47 1 47 C-0.33333333 43.66666667 -1.66666667 40.33333333 -3 37 C-3.37125 36.154375 -3.7425 35.30875 -4.125 34.4375 C-5.41902869 30.83270579 -5.12908387 27.80797418 -5 24 C-3.35 23.67 -1.7 23.34 0 23 C0 15.41 0 7.82 0 0 Z " fill="#C92C0F" transform="translate(419,263)"/>
<path d="M0 0 C0.66 0.33 1.32 0.66 2 1 C2.15054955 4.68846406 2.08223944 7.71369756 1.05859375 11.27734375 C-0.01084685 15.0381441 -0.58584355 18.62266012 -1.0625 22.5 C-1.66762443 27.34099546 -2.29702202 32.1724698 -3 37 C-2.34 37 -1.68 37 -1 37 C-1 37.66 -1 38.32 -1 39 C2.63 39 6.26 39 10 39 C10.66 40.65 11.32 42.3 12 44 C12.99 43.505 12.99 43.505 14 43 C13.71512349 40.95737483 13.42177949 38.91592973 13.125 36.875 C12.96257812 35.73804688 12.80015625 34.60109375 12.6328125 33.4296875 C12.02568583 30.13921085 11.13654367 27.14220897 10 24 C10 26.97 10 29.94 10 33 C8.02 33 6.04 33 4 33 C5.98 32.505 5.98 32.505 8 32 C7.88655624 29.8535247 7.75893655 27.70779408 7.625 25.5625 C7.55539062 24.36753906 7.48578125 23.17257812 7.4140625 21.94140625 C7.27742188 20.97074219 7.14078125 20.00007813 7 19 C6.34 18.67 5.68 18.34 5 18 C5.33 16.35 5.66 14.7 6 13 C6.33 13 6.66 13 7 13 C7 14.65 7 16.3 7 18 C7.66 18 8.32 18 9 18 C9.495 9.09 9.495 9.09 10 0 C10.33 0 10.66 0 11 0 C11.86786804 4.76250283 12.72170345 9.52724915 13.56347656 14.29443359 C13.85079068 15.91065588 14.1417113 17.52624187 14.43652344 19.14111328 C16.14242539 28.50036445 17.50843769 37.43854672 17 47 C14.69 47 12.38 47 10 47 C9.67 44.69 9.34 42.38 9 40 C7.02 40 5.04 40 3 40 C2.67 42.31 2.34 44.62 2 47 C-0.64 47 -3.28 47 -6 47 C-5.39763353 37.59991265 -4.32510855 28.32377102 -3 19 C-2.82210938 17.71738281 -2.64421875 16.43476563 -2.4609375 15.11328125 C-1.03422945 4.92403049 -1.03422945 4.92403049 0 0 Z " fill="#CC523A" transform="translate(375,263)"/>
<path d="M0 0 C7 0 7 0 10 1 C10 1.66 10 2.32 10 3 C10.66 3 11.32 3 12 3 C12 3.99 12 4.98 12 6 C10.35 6 8.7 6 7 6 C7 9.96 7 13.92 7 18 C8.32 17.67 9.64 17.34 11 17 C11.33 13.7 11.66 10.4 12 7 C12.33 7 12.66 7 13 7 C13 10.63 13 14.26 13 18 C12.01 18.33 11.02 18.66 10 19 C10 19.99 10 20.98 10 22 C10.99 22.33 11.98 22.66 13 23 C12.67 23.66 12.34 24.32 12 25 C10.35 24.67 8.7 24.34 7 24 C6.67 28.62 6.34 33.24 6 38 C4.68 38 3.36 38 2 38 C1.505 40.475 1.505 40.475 1 43 C0.67 43 0.34 43 0 43 C0 28.81 0 14.62 0 0 Z " fill="#CE2B0F" transform="translate(240,264)"/>
<path d="M0 0 C1.98 0 3.96 0 6 0 C6 14.52 6 29.04 6 44 C4.02 44 2.04 44 0 44 C0 37.73 0 31.46 0 25 C-1.65 24.67 -3.3 24.34 -5 24 C-5 23.34 -5 22.68 -5 22 C-3.68 22 -2.36 22 -1 22 C-0.67 14.74 -0.34 7.48 0 0 Z " fill="#D72C0A" transform="translate(287,264)"/>
<path d="M0 0 C0.33 0 0.66 0 1 0 C1.66 4.29 2.32 8.58 3 13 C3.66 12.01 4.32 11.02 5 10 C5.66 10.33 6.32 10.66 7 11 C7.33 10.34 7.66 9.68 8 9 C8.91377681 12.08399675 9 14.79865843 9 18 C9.33 18.33 9.66 18.66 10 19 C10.07226502 20.85287502 10.0838122 22.70833878 10.0625 24.5625 C10.05347656 25.57441406 10.04445313 26.58632813 10.03515625 27.62890625 C10.02355469 28.41136719 10.01195312 29.19382812 10 30 C3.375 33 3.375 33 0 33 C0.350625 31.989375 0.70125 30.97875 1.0625 29.9375 C2.1892448 26.07662622 1.80531717 22.94605414 1 19 C-2.03072149 26.85232386 -3.07001421 34.69577396 -4 43 C-2.02 43 -0.04 43 2 43 C2 43.33 2 43.66 2 44 C-0.64 44 -3.28 44 -6 44 C-4.83547199 29.15226791 -2.76080835 14.63389174 0 0 Z M6 13 C5.34 18.28 4.68 23.56 4 29 C5.32 29 6.64 29 8 29 C8.02725341 27.2709226 8.04650987 25.54171824 8.0625 23.8125 C8.07410156 22.84957031 8.08570313 21.88664062 8.09765625 20.89453125 C8.00486622 18.14423487 7.62111685 15.67520409 7 13 C6.67 13 6.34 13 6 13 Z " fill="#CD3F1F" transform="translate(311,266)"/>
<path d="M0 0 C3.3 0 6.6 0 10 0 C10 0.33 10 0.66 10 1 C7.03 1 4.06 1 1 1 C2.18424326 2.41577477 2.18424326 2.41577477 5.5625 2.0625 C7.2640625 2.0315625 7.2640625 2.0315625 9 2 C9.99535669 5.39737447 10.23100054 8.66015206 10.4375 12.1875 C10.76851832 16.95523157 11.43544862 21.36214965 12.58984375 25.98828125 C13.21159379 29.03781715 13.13199474 31.8981237 13 35 C11.35 34.67 9.7 34.34 8 34 C8.01160156 33.14535156 8.02320313 32.29070312 8.03515625 31.41015625 C8.04417969 30.30542969 8.05320312 29.20070313 8.0625 28.0625 C8.07410156 26.96035156 8.08570313 25.85820312 8.09765625 24.72265625 C8.31262571 22.08552366 8.31262571 22.08552366 7 21 C6.95907063 18.66702567 6.95758277 16.33294775 7 14 C6.01 14 5.02 14 4 14 C3.01 15.485 3.01 15.485 2 17 C0.14868517 13.07142246 -0.22004943 10.01224888 -0.125 5.6875 C-0.10695313 4.61886719 -0.08890625 3.55023438 -0.0703125 2.44921875 C-0.04710937 1.64097656 -0.02390625 0.83273437 0 0 Z " fill="#D62C0B" transform="translate(312,263)"/>
<path d="M0 0 C0.78117188 -0.020625 1.56234375 -0.04125 2.3671875 -0.0625 C8.21953903 -0.1025846 8.21953903 -0.1025846 10.37353516 1.77050781 C10.78651855 2.25874023 11.19950195 2.74697266 11.625 3.25 C9.875 8.125 9.875 8.125 7.625 9.25 C6.49397474 11.59038186 6.49397474 11.59038186 5.5 14.3125 C4.97019531 15.69115234 4.97019531 15.69115234 4.4296875 17.09765625 C4.16414062 17.80792969 3.89859375 18.51820313 3.625 19.25 C2.305 19.25 0.985 19.25 -0.375 19.25 C-0.045 18.59 0.285 17.93 0.625 17.25 C1.285 17.25 1.945 17.25 2.625 17.25 C3.285 12.96 3.945 8.67 4.625 4.25 C3.965 4.25 3.305 4.25 2.625 4.25 C2.625 3.59 2.625 2.93 2.625 2.25 C-0.675 1.92 -3.975 1.59 -7.375 1.25 C-7.045 15.77 -6.715 30.29 -6.375 45.25 C-2.085 45.58 2.205 45.91 6.625 46.25 C6.625 46.58 6.625 46.91 6.625 47.25 C1.675 47.25 -3.275 47.25 -8.375 47.25 C-9.5360884 44.92782321 -9.50173847 43.58438469 -9.50439453 40.99975586 C-9.50754669 40.12222153 -9.51069885 39.24468719 -9.51394653 38.34056091 C-9.5119223 37.39157425 -9.50989807 36.44258759 -9.5078125 35.46484375 C-9.50876923 34.49341934 -9.50972595 33.52199493 -9.51071167 32.52113342 C-9.51139283 30.46582983 -9.50954299 28.41052408 -9.50537109 26.35522461 C-9.5000162 23.19705411 -9.50532122 20.03902546 -9.51171875 16.88085938 C-9.51105807 14.88802052 -9.50977712 12.89518175 -9.5078125 10.90234375 C-9.50983673 9.95133286 -9.51186096 9.00032196 -9.51394653 8.02049255 C-9.51079437 7.14611038 -9.50764221 6.27172821 -9.50439453 5.37084961 C-9.50359894 4.59744736 -9.50280334 3.8240451 -9.50198364 3.02720642 C-9.17257113 -1.58310421 -3.51390784 0.02296672 0 0 Z " fill="#C9553F" transform="translate(247.375,262.75)"/>
<path d="M0 0 C17 0 17 0 21 3 C22.1053873 6.3161619 22.16753642 8.88536635 22.1875 12.375 C22.20167969 13.49648437 22.21585937 14.61796875 22.23046875 15.7734375 C22.00365368 18.94884842 21.35390668 21.14234718 20 24 C19.34 24 18.68 24 18 24 C18 23.01 18 22.02 18 21 C18.66 21 19.32 21 20 21 C19.34 15.39 18.68 9.78 18 4 C15.525 3.505 15.525 3.505 13 3 C13 2.34 13 1.68 13 1 C9.04 1 5.08 1 1 1 C1.33 18.16 1.66 35.32 2 53 C3.98 53 5.96 53 8 53 C8 52.01 8 51.02 8 50 C9.65 50 11.3 50 13 50 C12.01 50.495 12.01 50.495 11 51 C11 51.66 11 52.32 11 53 C13.97 52.34 16.94 51.68 20 51 C19.67 51.99 19.34 52.98 19 54 C12.98335642 56.00554786 6.3420992 55 0 55 C0 36.85 0 18.7 0 0 Z " fill="#E4A757" transform="translate(322,144)"/>
<path d="M0 0 C2.31 0 4.62 0 7 0 C8.98 5.28 10.96 10.56 13 16 C13.33 10.72 13.66 5.44 14 0 C14.33 0 14.66 0 15 0 C15.33 7.92 15.66 15.84 16 24 C14.02 24 12.04 24 10 24 C10 25.65 10 27.3 10 29 C9.67 29 9.34 29 9 29 C8.67 34.61 8.34 40.22 8 46 C7.67 46 7.34 46 7 46 C6.67 41.38 6.34 36.76 6 32 C5.67 32 5.34 32 5 32 C5 29.03 5 26.06 5 23 C7.31 22.34 9.62 21.68 12 21 C12 19.68 12 18.36 12 17 C11.34 17 10.68 17 10 17 C9.34 14.69 8.68 12.38 8 10 C7.67 10 7.34 10 7 10 C6.34 8.02 5.68 6.04 5 4 C4.34 4 3.68 4 3 4 C2.67 8.62 2.34 13.24 2 18 C1.34 18 0.68 18 0 18 C0 12.06 0 6.12 0 0 Z " fill="#E8896D" transform="translate(404,263)"/>
<path d="M0 0 C2.35953094 2.35953094 2.49141413 3.77895617 3 7 C5.64 7 8.28 7 11 7 C9.71034824 8.37562854 8.37310707 9.70766393 7 11 C6.34 11 5.68 11 5 11 C5.66 13.97 6.32 16.94 7 20 C6.2575 19.484375 5.515 18.96875 4.75 18.4375 C2.20915447 16.7932769 2.20915447 16.7932769 -0.0625 17.1875 C-2.09507174 18.03986879 -4.0570659 18.95914244 -6 20 C-5.67 17.36 -5.34 14.72 -5 12 C-5.66 11.54625 -6.32 11.0925 -7 10.625 C-7.66 10.08875 -8.32 9.5525 -9 9 C-9 8.34 -9 7.68 -9 7 C-6.69 7 -4.38 7 -2 7 C-1.34 4.69 -0.68 2.38 0 0 Z " fill="#E17F56" transform="translate(332,108)"/>
<path d="M0 0 C0.33 0 0.66 0 1 0 C1.05402274 2.10388569 1.09280256 4.20816714 1.125 6.3125 C1.14820313 7.48425781 1.17140625 8.65601563 1.1953125 9.86328125 C1 13 1 13 -1 16 C-0.51273437 16.69222656 -0.02546875 17.38445312 0.4765625 18.09765625 C3.11497073 23.12416218 2.54169313 28.45806263 2 34 C1.24864586 36.40951501 0.43595624 37.90589715 -1 40 C-2.32 40 -3.64 40 -5 40 C-3.515 39.505 -3.515 39.505 -2 39 C-2.33 37.02 -2.66 35.04 -3 33 C-3.66 33 -4.32 33 -5 33 C-5.38363893 18.82667294 -5.38363893 18.82667294 -3 13 C-2.34 12.67 -1.68 12.34 -1 12 C-0.53101037 9.1840151 -0.53101037 9.1840151 -0.375 5.9375 C-0.26285156 4.28041016 -0.26285156 4.28041016 -0.1484375 2.58984375 C-0.09945313 1.73519531 -0.05046875 0.88054687 0 0 Z " fill="#D8472A" transform="translate(259,268)"/>
<path d="M0 0 C0.06972857 10.25795341 0.12292689 20.51584976 0.15543652 30.77399254 C0.1710451 35.53805328 0.19219487 40.30195101 0.22631836 45.06591797 C0.25908414 49.66951713 0.27688911 54.27296019 0.28463173 58.87666702 C0.29014448 60.62681152 0.30090904 62.37694816 0.31719017 64.1270256 C0.47400834 81.69353264 0.47400834 81.69353264 -3 90 C-3.45761719 91.11632812 -3.91523438 92.23265625 -4.38671875 93.3828125 C-5.03060547 94.74019531 -5.03060547 94.74019531 -5.6875 96.125 C-6.12449219 97.05570312 -6.56148438 97.98640625 -7.01171875 98.9453125 C-7.33785156 99.62335938 -7.66398437 100.30140625 -8 101 C-8.33 101 -8.66 101 -9 101 C-9.125 98.125 -9.125 98.125 -9 95 C-8.01 94.01 -8.01 94.01 -7 93 C-6.41298001 90.99739114 -5.90072862 88.97231055 -5.4375 86.9375 C-4.09722222 81.09722222 -4.09722222 81.09722222 -3 80 C-1.62462191 72.18453618 -1.77451998 64.25541417 -1.68359375 56.34375 C-1.66298977 54.83060178 -1.64199248 53.31745886 -1.62062073 51.80432129 C-1.5657553 47.84574721 -1.51619126 43.88712429 -1.46777344 39.9284668 C-1.41729688 35.87935097 -1.36174814 31.83030498 -1.30664062 27.78125 C-1.19949448 19.85422593 -1.09795517 11.92714295 -1 4 C-2.98 4.99 -2.98 4.99 -5 6 C-5 4.68 -5 3.36 -5 2 C-2 0 -2 0 0 0 Z " fill="#B24A26" transform="translate(393,96)"/>
<path d="M0 0 C0.66 0 1.32 0 2 0 C2 0.66 2 1.32 2 2 C2.66 2 3.32 2 4 2 C4 6.95 4 11.9 4 17 C5.65 17 7.3 17 9 17 C9.33 16.01 9.66 15.02 10 14 C11.14229879 17.42689636 10.90861076 19.61102218 10.5625 23.1875 C10.46066406 24.27417969 10.35882813 25.36085938 10.25390625 26.48046875 C10.17011719 27.31191406 10.08632813 28.14335937 10 29 C8.02 29 6.04 29 4 29 C-0.72537113 21.09790879 -0.37951668 8.9608104 0 0 Z " fill="#DA2B0B" transform="translate(343,279)"/>
<path d="M0 0 C0.66 0 1.32 0 2 0 C2 13.86 2 27.72 2 42 C0.02 42 -1.96 42 -4 42 C-5.33333333 38.66666667 -6.66666667 35.33333333 -8 32 C-8.37382812 31.12730469 -8.74765625 30.25460937 -9.1328125 29.35546875 C-10 27 -10 27 -10 24 C-9.01 24 -8.02 24 -7 24 C-6.855625 24.763125 -6.71125 25.52625 -6.5625 26.3125 C-6.0367406 29.08172908 -6.0367406 29.08172908 -5 32 C-4.67 32.99 -4.34 33.98 -4 35 C-3.34 35.33 -2.68 35.66 -2 36 C-2.33 36.99 -2.66 37.98 -3 39 C-2.01 39 -1.02 39 0 39 C0 26.13 0 13.26 0 0 Z " fill="#C0371F" transform="translate(424,268)"/>
<path d="M0 0 C2.31 0.33 4.62 0.66 7 1 C7.05394705 3.60444348 7.09364469 6.20776998 7.125 8.8125 C7.14175781 9.55048828 7.15851563 10.28847656 7.17578125 11.04882812 C7.21074628 14.91246426 7.19397555 16.70903668 5 20 C3.35 20 1.7 20 0 20 C0 13.4 0 6.8 0 0 Z " fill="#B43E2B" transform="translate(330,173)"/>
<path d="M0 0 C1.65 0.99 3.3 1.98 5 3 C4.51322375 3.40690976 4.02644751 3.81381952 3.52492046 4.23305988 C1.63970407 6.41747839 1.6186327 7.42051111 1.60127258 10.27104187 C1.58873444 11.14182373 1.57619629 12.01260559 1.5632782 12.90977478 C1.56471329 13.86211502 1.56614838 14.81445526 1.56762695 15.7956543 C1.5574353 16.80071014 1.54724365 17.80576599 1.53674316 18.84127808 C1.5065079 22.1689809 1.49733102 25.49639637 1.48828125 28.82421875 C1.4714424 31.12922633 1.45329325 33.43422467 1.43388367 35.73921204 C1.38629149 41.81040565 1.35654168 47.88156186 1.33044434 53.95288086 C1.30068534 60.14639678 1.25413904 66.3397837 1.20898438 72.53320312 C1.12284634 84.68873473 1.05554775 96.84429282 1 109 C0.67 109 0.34 109 0 109 C0 73.03 0 37.06 0 0 Z " fill="#AA5F4F" transform="translate(247,68)"/>
<path d="M0 0 C2.31 0 4.62 0 7 0 C8.40454548 6.11980533 9.23268915 11.71739294 9 18 C8.34 18 7.68 18 7 18 C7 17.34 7 16.68 7 16 C6.34 16 5.68 16 5 16 C4.67 17.32 4.34 18.64 4 20 C3.32331051 17.79471728 2.65906502 15.58561391 2 13.375 C1.62875 12.14523437 1.2575 10.91546875 0.875 9.6484375 C0.06272281 6.26153174 -0.17041013 3.46145571 0 0 Z " fill="#CD3D27" transform="translate(338,263)"/>
<path d="M0 0 C0.66 0 1.32 0 2 0 C2 36.96 2 73.92 2 112 C1.67 112 1.34 112 1 112 C0.86944888 97.83997848 0.73905675 83.67995551 0.60884857 69.51993084 C0.54838735 62.94533408 0.48787478 56.3707378 0.42724609 49.79614258 C0.36877136 43.45491964 0.31042988 37.1136955 0.25218201 30.77247047 C0.2299019 28.34949512 0.20757324 25.92652022 0.18519592 23.50354576 C0.15393553 20.11784351 0.12284559 16.73213974 0.09179688 13.34643555 C0.08244614 12.33799088 0.0730954 11.3295462 0.0634613 10.2905426 C0.05504715 9.36927582 0.046633 8.44800903 0.03796387 7.49882507 C0.03058952 6.69778697 0.02321518 5.89674887 0.01561737 5.07143688 C0.00287249 3.38099795 0 1.69048698 0 0 Z " fill="#A64D43" transform="translate(416,70)"/>
<path d="M0 0 C1.32 0 2.64 0 4 0 C4 0.66 4 1.32 4 2 C3.01 2 2.02 2 1 2 C1.10762564 12.71829393 1.22028409 23.43652208 1.33933926 34.15469551 C1.39446581 39.1317542 1.44786916 44.10881887 1.49731445 49.0859375 C1.54510974 53.89055229 1.59745757 58.69509803 1.65294075 63.49962997 C1.67329573 65.33118847 1.69201987 67.16276586 1.70907402 68.99435806 C1.73327038 71.56287698 1.76330333 74.13126713 1.79467773 76.69970703 C1.8004332 77.45424667 1.80618866 78.20878632 1.81211853 78.9861908 C1.85629121 82.17487229 2.03193875 85.18493048 2.57533264 88.33126831 C3 91 3 91 2 94 C1.34 94 0.68 94 0 94 C-1.23648861 84.38805083 -1.14546999 74.82890479 -1.1328125 65.15625 C-1.13348703 63.33687324 -1.13445829 61.51749657 -1.13571167 59.69812012 C-1.13717864 55.90583427 -1.13506443 52.11357213 -1.13037109 48.32128906 C-1.12464168 43.45435986 -1.1279793 38.58748542 -1.13394356 33.72055817 C-1.1375485 29.97346581 -1.13641146 26.22638656 -1.13381577 22.47929382 C-1.133148 20.68348687 -1.1339697 18.88767874 -1.13629532 17.09187317 C-1.13882425 14.5931174 -1.13497933 12.09445212 -1.12939453 9.59570312 C-1.13141876 8.85184357 -1.13344299 8.10798401 -1.13552856 7.34158325 C-1.11427136 2.22854272 -1.11427136 2.22854272 0 0 Z " fill="#B04527" transform="translate(267,91)"/>
<path d="M0 0 C2.31 0 4.62 0 7 0 C5.125 6.75 5.125 6.75 4 9 C3.97992665 10.72917566 4.00766728 12.45907738 4.0625 14.1875 C4.1184045 18.90832416 3.5756991 22.56834629 2 27 C1.01 27 0.02 27 -1 27 C-0.67 18.09 -0.34 9.18 0 0 Z " fill="#D9280A" transform="translate(353,263)"/>
<path d="M0 0 C1.56105023 3.12210046 1.07934892 6.42386207 1.02172852 9.84619141 C1.01212097 10.65602982 1.00251343 11.46586823 0.99261475 12.30024719 C0.95956414 14.98410573 0.91925496 17.66780456 0.87890625 20.3515625 C0.85461105 22.20957878 0.8307672 24.06760101 0.80735779 25.92562866 C0.7444571 30.82147998 0.67540743 35.71722623 0.60510254 40.61297607 C0.53447309 45.60651861 0.4696239 50.60013578 0.40429688 55.59375 C0.27520741 65.39591536 0.13962571 75.19797946 0 85 C-0.33 85 -0.66 85 -1 85 C-1 57.61 -1 30.22 -1 2 C-2.98 2.99 -4.96 3.98 -7 5 C-8.65910004 5.68528045 -10.32332564 6.35891863 -12 7 C-12 6.01 -12 5.02 -12 4 C-10.68 4 -9.36 4 -8 4 C-7.67 3.01 -7.34 2.02 -7 1 C-4.53721199 -0.231394 -2.7204945 -0.07159196 0 0 Z " fill="#B35128" transform="translate(396,91)"/>
<path d="M0 0 C5.17024056 7.75536084 5.48867672 18.75532459 6.5703125 27.8828125 C6.90612624 31.02457815 6.90612624 31.02457815 8 34 C9.98 34.33 11.96 34.66 14 35 C14.495 32.03 14.495 32.03 15 29 C15.33 29 15.66 29 16 29 C16.125 34.75 16.125 34.75 15 37 C11.7 37 8.4 37 5 37 C3.30808578 30.35319415 2.42439579 23.74855336 1.69775391 16.94165039 C1.32964189 13.54568199 0.85405064 10.30382746 0 7 C-0.03888349 4.66699067 -0.0448635 2.33290199 0 0 Z " fill="#C74A34" transform="translate(339,273)"/>
<path d="M0 0 C0.66 0 1.32 0 2 0 C2 0.99 2 1.98 2 3 C4.475 3.99 4.475 3.99 7 5 C6.76990234 6.01126953 6.76990234 6.01126953 6.53515625 7.04296875 C5.91516143 10.46877952 5.6647426 13.83893447 5.4375 17.3125 C5.35371094 18.56675781 5.26992187 19.82101562 5.18359375 21.11328125 C5.12300781 22.06589844 5.06242188 23.01851563 5 24 C3.35 24 1.7 24 0 24 C-0.05398987 21.72942623 -0.09278742 19.45848712 -0.125 17.1875 C-0.14820313 15.92292969 -0.17140625 14.65835937 -0.1953125 13.35546875 C0 10 0 10 2 7 C2 6.01 2 5.02 2 4 C1.34 4 0.68 4 0 4 C0 2.68 0 1.36 0 0 Z " fill="#D72A08" transform="translate(241,278)"/>
<path d="M0 0 C1.58357459 0.31127516 3.16684993 0.62407289 4.75 0.9375 C5.63171875 1.11152344 6.5134375 1.28554687 7.421875 1.46484375 C10 2 10 2 11.84375 2.55859375 C15.12869718 3.23105576 18.41205263 3.14659485 21.75 3.125 C22.46285156 3.12306641 23.17570312 3.12113281 23.91015625 3.11914062 C28.69378987 3.07978715 33.28606031 2.78565661 38 2 C37.34 2.33 36.68 2.66 36 3 C36 3.66 36 4.32 36 5 C39.465 4.505 39.465 4.505 43 4 C43.495 5.485 43.495 5.485 44 7 C42.35 7.66 40.7 8.32 39 9 C39 8.34 39 7.68 39 7 C37.68 7 36.36 7 35 7 C35 6.34 35 5.68 35 5 C34.4234668 5.16081055 33.84693359 5.32162109 33.25292969 5.48730469 C29.60308196 6.31789422 25.97961353 6.22562344 22.25 6.25 C21.08984375 6.2809375 21.08984375 6.2809375 19.90625 6.3125 C13.51428525 6.35539909 8.74048451 4.87024225 3 2 C3 2.66 3 3.32 3 4 C2.34 4 1.68 4 1 4 C0.67 2.68 0.34 1.36 0 0 Z " fill="#B0564C" transform="translate(268,79)"/>
<path d="M0 0 C1.98510058 1.63707833 2.91847304 2.50096147 3.34057617 5.0847168 C3.32486572 5.86500244 3.30915527 6.64528809 3.29296875 7.44921875 C3.28330078 8.29677734 3.27363281 9.14433594 3.26367188 10.01757812 C3.23853516 10.89865234 3.21339844 11.77972656 3.1875 12.6875 C3.17396484 13.58017578 3.16042969 14.47285156 3.14648438 15.39257812 C3.11114079 17.59566166 3.06180493 19.79752582 3 22 C2.01 22 1.02 22 0 22 C-0.33 21.01 -0.66 20.02 -1 19 C-1.33 18.401875 -1.66 17.80375 -2 17.1875 C-3.70893592 13.44920268 -4.56392181 10.61763488 -3.16796875 6.61328125 C-2.17231218 4.37217441 -1.12743758 2.17745455 0 0 Z " fill="#DA280A" transform="translate(421,285)"/>
<path d="M0 0 C0.33 0 0.66 0 1 0 C1.33923576 2.35344806 1.67150534 4.7075484 2 7.0625 C2.09539062 7.71927734 2.19078125 8.37605469 2.2890625 9.05273438 C2.88887674 13.40138763 3.09127093 17.61329071 3 22 C3.66 22 4.32 22 5 22 C4.98839844 21.29875 4.97679687 20.5975 4.96484375 19.875 C4.91028816 14.13886898 5.14381623 8.67221747 6 3 C6.33 3 6.66 3 7 3 C7 10.59 7 18.18 7 26 C5.02 26 3.04 26 1 26 C0 25 0 25 -0.11352539 22.59155273 C-0.10828857 21.54942627 -0.10305176 20.5072998 -0.09765625 19.43359375 C-0.09443359 18.30888672 -0.09121094 17.18417969 -0.08789062 16.02539062 C-0.07951172 14.84138672 -0.07113281 13.65738281 -0.0625 12.4375 C-0.05798828 11.24962891 -0.05347656 10.06175781 -0.04882812 8.83789062 C-0.03699675 5.89187774 -0.02051287 2.94596319 0 0 Z " fill="#C14429" transform="translate(404,284)"/>
<path d="M0 0 C1.98 0 3.96 0 6 0 C6 5.61 6 11.22 6 17 C5.67 17 5.34 17 5 17 C5 11.72 5 6.44 5 1 C3.68 1 2.36 1 1 1 C1.33 14.53 1.66 28.06 2 42 C2.66 42 3.32 42 4 42 C4.495 33.09 4.495 33.09 5 24 C5.33 24 5.66 24 6 24 C6 30.93 6 37.86 6 45 C4.02 45 2.04 45 0 45 C0 30.15 0 15.3 0 0 Z " fill="#C83015" transform="translate(274,264)"/>
<path d="M0 0 C0.10957031 0.82757813 0.21914063 1.65515625 0.33203125 2.5078125 C0.49058594 3.70148438 0.64914062 4.89515625 0.8125 6.125 C0.94180908 7.10218994 0.94180908 7.10218994 1.07373047 8.09912109 C1.63317328 12.30803136 2.21002988 16.51411392 2.80078125 20.71875 C3.00513794 22.18417236 3.00513794 22.18417236 3.21362305 23.67919922 C3.48447341 25.61871283 3.75800431 27.5578543 4.03442383 29.49658203 C4.15970459 30.39747559 4.28498535 31.29836914 4.4140625 32.2265625 C4.5270166 33.02658691 4.6399707 33.82661133 4.75634766 34.65087891 C5.01212408 37.11689172 5.04120844 39.52254869 5 42 C4.67 41.34 4.34 40.68 4 40 C3.34 40 2.68 40 2 40 C1.80083984 38.10314453 1.80083984 38.10314453 1.59765625 36.16796875 C1.41944537 34.50779375 1.24105037 32.84763852 1.0625 31.1875 C0.97548828 30.35412109 0.88847656 29.52074219 0.79882812 28.66210938 C0.71181641 27.85966797 0.62480469 27.05722656 0.53515625 26.23046875 C0.456604 25.49207764 0.37805176 24.75368652 0.29711914 23.99291992 C0.02848004 21.79730622 0.02848004 21.79730622 -1 19 C-1.14403348 17.66636297 -1.24590423 16.32781954 -1.31640625 14.98828125 C-1.35830078 14.23095703 -1.40019531 13.47363281 -1.44335938 12.69335938 C-1.50233398 11.51483398 -1.50233398 11.51483398 -1.5625 10.3125 C-1.60568359 9.51521484 -1.64886719 8.71792969 -1.69335938 7.89648438 C-1.79927368 5.93118553 -1.90012551 3.96561504 -2 2 C-4.64 2.33 -7.28 2.66 -10 3 C-10 2.34 -10 1.68 -10 1 C-8.5209084 0.83266843 -7.04172444 0.66615314 -5.5625 0.5 C-4.32693359 0.36078125 -4.32693359 0.36078125 -3.06640625 0.21875 C-1 0 -1 0 0 0 Z " fill="#D15D45" transform="translate(323,263)"/>
<path d="M0 0 C0.33 0 0.66 0 1 0 C1.34187963 21.42445684 1.34187963 21.42445684 -0.96875 25.859375 C-2.48805838 29.01309087 -2.72860541 32.3124141 -3.125 35.75 C-3.21136719 36.44738281 -3.29773438 37.14476562 -3.38671875 37.86328125 C-3.59771846 39.57472332 -3.79975501 41.28726629 -4 43 C-2.02 43 -0.04 43 2 43 C2 43.33 2 43.66 2 44 C-0.64 44 -3.28 44 -6 44 C-4.83547199 29.15226791 -2.76080835 14.63389174 0 0 Z " fill="#CE654C" transform="translate(311,266)"/>
<path d="M0 0 C0.33 0 0.66 0 1 0 C2.06280504 6.29645003 2.32111895 12.56266607 2.5625 18.9375 C2.60568359 20.00291016 2.64886719 21.06832031 2.69335938 22.16601562 C2.79874489 24.77723443 2.90087088 27.38853746 3 30 C2.67 30 2.34 30 2 30 C1.34 28.02 0.68 26.04 0 24 C0 26.97 0 29.94 0 33 C-1.98 33 -3.96 33 -6 33 C-4.02 32.505 -4.02 32.505 -2 32 C-2.11344376 29.8535247 -2.24106345 27.70779408 -2.375 25.5625 C-2.44460938 24.36753906 -2.51421875 23.17257812 -2.5859375 21.94140625 C-2.72257812 20.97074219 -2.85921875 20.00007813 -3 19 C-3.66 18.67 -4.32 18.34 -5 18 C-4.67 16.35 -4.34 14.7 -4 13 C-3.67 13 -3.34 13 -3 13 C-3 14.65 -3 16.3 -3 18 C-2.34 18 -1.68 18 -1 18 C-0.505 9.09 -0.505 9.09 0 0 Z " fill="#D0472F" transform="translate(385,263)"/>
<path d="M0 0 C1.65 0 3.3 0 5 0 C6 1 6 1 6.1328125 3.90625 C6.12894531 5.68515625 6.12894531 5.68515625 6.125 7.5 C6.12757813 8.6859375 6.13015625 9.871875 6.1328125 11.09375 C6 14 6 14 5 15 C3.35 15 1.7 15 0 15 C0 10.05 0 5.1 0 0 Z " fill="#AB4B1F" transform="translate(330,151)"/>
<path d="M0 0 C2.31 0 4.62 0 7 0 C8.03016022 2.62168311 9.04938394 5.24673881 10.0625 7.875 C10.35705078 8.62136719 10.65160156 9.36773437 10.95507812 10.13671875 C11.69520486 12.06975563 12.35355735 14.03365032 13 16 C12.67 16.66 12.34 17.32 12 18 C9.10067643 15.60490662 8.49831724 13.68754757 8 10 C7.67 10 7.34 10 7 10 C6.34 8.02 5.68 6.04 5 4 C4.34 4 3.68 4 3 4 C2.67 8.62 2.34 13.24 2 18 C1.34 18 0.68 18 0 18 C0 12.06 0 6.12 0 0 Z " fill="#CB6448" transform="translate(404,263)"/>
<path d="M0 0 C1.98 0.99 1.98 0.99 4 2 C3.67657623 2.51999573 3.35315247 3.03999146 3.01992798 3.57574463 C1.6855748 6.74735374 1.7188232 9.34748068 1.68115234 12.78808594 C1.67110672 13.46166641 1.6610611 14.13524689 1.65071106 14.82923889 C1.61990979 17.0476092 1.60285279 19.265859 1.5859375 21.484375 C1.56722335 23.02566564 1.54764975 24.56694606 1.5272522 26.10821533 C1.47595089 30.15889458 1.43631456 34.20960704 1.39910889 38.26043701 C1.35905663 42.39636436 1.30796987 46.53215379 1.2578125 50.66796875 C1.16107693 58.77855158 1.07666467 66.88920274 1 75 C0.67 75 0.34 75 0 75 C0 50.25 0 25.5 0 0 Z " fill="#AB4122" transform="translate(270,96)"/>
<path d="M0 0 C1.01234287 3.22011686 0.96624872 5.66863923 0.51171875 9 C0.38321533 9.96478271 0.25471191 10.92956543 0.12231445 11.92358398 C-0.02117432 12.93880127 -0.16466309 13.95401855 -0.3125 15 C-0.45276611 16.03133057 -0.59303223 17.06266113 -0.73754883 18.12524414 C-1.69870057 25.10528545 -2.73289262 32.06817725 -4 39 C-4.33 39 -4.66 39 -5 39 C-5.02683987 36.02077407 -5.04676037 33.04178705 -5.0625 30.0625 C-5.07087891 29.21236328 -5.07925781 28.36222656 -5.08789062 27.48632812 C-5.09111328 26.67744141 -5.09433594 25.86855469 -5.09765625 25.03515625 C-5.10289307 24.2862915 -5.10812988 23.53742676 -5.11352539 22.76586914 C-5 21 -5 21 -4 20 C-3.96828815 16.92395088 -4.06853857 13.85984547 -4.16015625 10.78515625 C-4 8 -4 8 -2 6 C-1.28591666 4.01643517 -0.61382258 2.01684563 0 0 Z " fill="#D05F48" transform="translate(360,263)"/>
<path d="M0 0 C0.66 0 1.32 0 2 0 C4.43974056 7.31922167 3.629288 16.76134292 1 24 C-1 26 -1 26 -3.06298828 26.22705078 C-4.30411377 26.21134033 -4.30411377 26.21134033 -5.5703125 26.1953125 C-6.46621094 26.18886719 -7.36210937 26.18242187 -8.28515625 26.17578125 C-9.22230469 26.15902344 -10.15945313 26.14226562 -11.125 26.125 C-12.06988281 26.11597656 -13.01476562 26.10695312 -13.98828125 26.09765625 C-16.32577292 26.07404522 -18.66276123 26.04111516 -21 26 C-21 25.67 -21 25.34 -21 25 C-19.46279297 24.90912109 -19.46279297 24.90912109 -17.89453125 24.81640625 C-16.53384305 24.73194974 -15.17316657 24.64730433 -13.8125 24.5625 C-13.13896484 24.52318359 -12.46542969 24.48386719 -11.77148438 24.44335938 C-8.10300898 24.21072435 -4.58305794 23.82792989 -1 23 C-0.13190561 17.79826905 0.12515348 12.83021184 0.0625 7.5625 C0.05798828 6.83095703 0.05347656 6.09941406 0.04882812 5.34570312 C0.03718148 3.56376581 0.01925191 1.78187137 0 0 Z " fill="#B14C25" transform="translate(344,174)"/>
<path d="M0 0 C0.75 1.75 0.75 1.75 1 4 C0.443125 4.53625 -0.11375 5.0725 -0.6875 5.625 C-4.11944007 9.14969521 -5.35825957 13.42408519 -7 18 C-8.32 18 -9.64 18 -11 18 C-10.67 17.34 -10.34 16.68 -10 16 C-9.34 16 -8.68 16 -8 16 C-7.34 11.71 -6.68 7.42 -6 3 C-6.66 3 -7.32 3 -8 3 C-8 2.34 -8 1.68 -8 1 C-8.99 0.67 -9.98 0.34 -11 0 C-3.57142857 -1.28571429 -3.57142857 -1.28571429 0 0 Z " fill="#D94529" transform="translate(258,264)"/>
<path d="M0 0 C0.33 0 0.66 0 1 0 C2.85710087 8.65479083 4.46588214 17.14101063 5 26 C2 25 2 25 0.8125 23.125 C0 21 0 21 0 18 C-0.99 18 -1.98 18 -3 18 C-3 17.34 -3 16.68 -3 16 C-2.34 15.67 -1.68 15.34 -1 15 C-1.01160156 14.25234375 -1.02320313 13.5046875 -1.03515625 12.734375 C-1.04417969 11.74953125 -1.05320312 10.7646875 -1.0625 9.75 C-1.07410156 8.77546875 -1.08570313 7.8009375 -1.09765625 6.796875 C-1.01195577 4.34241322 -0.70706066 2.33831086 0 0 Z " fill="#DB2A0B" transform="translate(385,282)"/>
<path d="M0 0 C0.66 1.32 1.32 2.64 2 4 C3.65 4 5.3 4 7 4 C6.01 5.485 6.01 5.485 5 7 C4.83300768 10.12521833 4.83300768 10.12521833 5 13 C4.2575 12.62875 3.515 12.2575 2.75 11.875 C0.05716353 10.70484137 0.05716353 10.70484137 -2.3125 11.875 C-3.1478125 12.431875 -3.1478125 12.431875 -4 13 C-3.95875 12.071875 -3.9175 11.14375 -3.875 10.1875 C-3.72863661 6.84190281 -3.72863661 6.84190281 -6 4 C-4.35 3.67 -2.7 3.34 -1 3 C-0.67 2.01 -0.34 1.02 0 0 Z " fill="#B64D2B" transform="translate(332,112)"/>
<path d="M0 0 C0.33 0 0.66 0 1 0 C1 3.3 1 6.6 1 10 C1.66 10 2.32 10 3 10 C3.625 12.875 3.625 12.875 4 16 C2 18 2 18 -1.4765625 18.1953125 C-2.85950968 18.18201493 -4.24238654 18.15816232 -5.625 18.125 C-6.68460938 18.11146484 -6.68460938 18.11146484 -7.765625 18.09765625 C-9.51056098 18.07407603 -11.25532295 18.03820461 -13 18 C-12.67 17.34 -12.34 16.68 -12 16 C-8.70580475 15.08776132 -5.36984798 14.59718825 -2 14 C-1.34 9.38 -0.68 4.76 0 0 Z " fill="#CB280F" transform="translate(253,291)"/>
<path d="M0 0 C0.66 1.32 1.32 2.64 2 4 C-5.73790324 10.35907474 -11.88693524 13.54177133 -22 13 C-22 12.34 -22 11.68 -22 11 C-20.35 11 -18.7 11 -17 11 C-17 10.34 -17 9.68 -17 9 C-13.32589215 7.82428549 -9.83070817 7.92633254 -6 8 C-5.67 7.01 -5.34 6.02 -5 5 C-4.01 5 -3.02 5 -2 5 C-1.855625 4.360625 -1.71125 3.72125 -1.5625 3.0625 C-1 1 -1 1 0 0 Z " fill="#B24626" transform="translate(326,90)"/>
<path d="M0 0 C2.31 0.33 4.62 0.66 7 1 C7.05394705 3.60444348 7.09364469 6.20776998 7.125 8.8125 C7.14175781 9.55048828 7.15851563 10.28847656 7.17578125 11.04882812 C7.21074628 14.91246426 7.19397555 16.70903668 5 20 C3.35 20 1.7 20 0 20 C0 13.4 0 6.8 0 0 Z M2 2 C0.60843516 3.16277032 0.60843516 3.16277032 0.90234375 6.37890625 C0.90901631 7.77347077 0.92097468 9.16801743 0.9375 10.5625 C0.94201172 11.27341797 0.94652344 11.98433594 0.95117188 12.71679688 C0.96299136 14.47790013 0.98092737 16.23896036 1 18 C3.6905528 16.77992056 3.6905528 16.77992056 6 15 C6.09894455 13.5653041 6.12970735 12.12559603 6.125 10.6875 C6.12886719 9.51767578 6.12886719 9.51767578 6.1328125 8.32421875 C6.00499912 6.08748461 5.61913869 4.14733021 5 2 C4.01 2 3.02 2 2 2 Z " fill="#AE4D23" transform="translate(330,173)"/>
<path d="M0 0 C0.66 0.33 1.32 0.66 2 1 C-13.75554346 10.79570006 -13.75554346 10.79570006 -21.06640625 9.52734375 C-23.93550005 8.74486362 -26.43162018 7.4768184 -29 6 C-26.0327973 4.81311892 -24.9623263 5.01356253 -21.875 6.125 C-15.13620161 7.64666415 -9.46498661 4.84616365 -3.5 1.75 C-1.7675 0.88375 -1.7675 0.88375 0 0 Z " fill="#B14926" transform="translate(349,225)"/>
<path d="M0 0 C0.5775 0.185625 1.155 0.37125 1.75 0.5625 C4.20692525 1.04023546 5.64397534 0.75729364 8 0 C5.24962174 3.47471451 1.39056573 4.77762467 -2.625 6.3125 C-3.33978516 6.58594238 -4.05457031 6.85938477 -4.79101562 7.14111328 C-10.54043096 9.17269499 -14.22180578 9.27000487 -20 7 C-17.17068148 6.19071295 -14.68915923 5.88851401 -11.75 5.9375 C-9.89375 5.9684375 -9.89375 5.9684375 -8 6 C-8 5.01 -8 4.02 -8 3 C-5.36 3 -2.72 3 0 3 C0 2.01 0 1.02 0 0 Z " fill="#BB6558" transform="translate(345,254)"/>
<path d="M0 0 C0 0.66 0 1.32 0 2 C-8.21472661 5.26258646 -15.16749011 6.56377723 -24 6 C-24 5.67 -24 5.34 -24 5 C-20.7 5 -17.4 5 -14 5 C-14 4.34 -14 3.68 -14 3 C-9.62850344 -0.66641647 -5.39741292 -0.31749488 0 0 Z " fill="#B34527" transform="translate(382,98)"/>
<path d="M0 0 C6.625 -0.125 6.625 -0.125 10 1 C12.73289293 1.22797562 15.45042204 1.41668187 18.1875 1.5625 C18.93708984 1.60568359 19.68667969 1.64886719 20.45898438 1.69335938 C22.30578375 1.79922685 24.15286834 1.9000976 26 2 C26 2.33 26 2.66 26 3 C20.73039566 3.71452262 15.50456096 4.15046767 10.1875 4.3125 C8.56908203 4.36857422 8.56908203 4.36857422 6.91796875 4.42578125 C3.35533468 3.90593237 2.23399416 2.74245772 0 0 Z " fill="#B25D52" transform="translate(357,81)"/>
<path d="M0 0 C0.66 0.33 1.32 0.66 2 1 C2.15010038 4.67745923 2.08708828 7.69809397 1.0625 11.25 C-0.32136654 16.13423484 -0.65302831 20.95064883 -1 26 C-5.29796825 19.55304762 -1.80836504 9.25052881 -0.40234375 1.984375 C-0.26957031 1.32953125 -0.13679688 0.6746875 0 0 Z " fill="#D36851" transform="translate(375,263)"/>
<path d="M0 0 C1.23556641 0.01740234 1.23556641 0.01740234 2.49609375 0.03515625 C3.32238281 0.04417969 4.14867187 0.05320312 5 0.0625 C5.63808594 0.07410156 6.27617187 0.08570313 6.93359375 0.09765625 C6.93359375 2.40765625 6.93359375 4.71765625 6.93359375 7.09765625 C8.58359375 7.42765625 10.23359375 7.75765625 11.93359375 8.09765625 C12.26359375 6.77765625 12.59359375 5.45765625 12.93359375 4.09765625 C12.93359375 5.74765625 12.93359375 7.39765625 12.93359375 9.09765625 C10.600646 9.14007348 8.26656808 9.13858562 5.93359375 9.09765625 C4.93359375 8.09765625 4.93359375 8.09765625 4.87109375 5.03515625 C4.89171875 4.06578125 4.91234375 3.09640625 4.93359375 2.09765625 C2.62359375 2.09765625 0.31359375 2.09765625 -2.06640625 2.09765625 C-2.06640625 4.07765625 -2.06640625 6.05765625 -2.06640625 8.09765625 C-2.39640625 8.09765625 -2.72640625 8.09765625 -3.06640625 8.09765625 C-3.10882348 5.7647085 -3.10733562 3.43063058 -3.06640625 1.09765625 C-2.06640625 0.09765625 -2.06640625 0.09765625 0 0 Z " fill="#D17462" transform="translate(316.06640625,300.90234375)"/>
<path d="M0 0 C0.99 0 1.98 0 3 0 C3.144375 0.763125 3.28875 1.52625 3.4375 2.3125 C3.9632594 5.08172908 3.9632594 5.08172908 5 8 C5.33 8.99 5.66 9.98 6 11 C6.66 11.33 7.32 11.66 8 12 C7.67 13.32 7.34 14.64 7 16 C8.65 16.33 10.3 16.66 12 17 C12 17.33 12 17.66 12 18 C10.02 18 8.04 18 6 18 C4.66666667 14.66666667 3.33333333 11.33333333 2 8 C1.43925781 6.69095703 1.43925781 6.69095703 0.8671875 5.35546875 C0 3 0 3 0 0 Z " fill="#C46147" transform="translate(414,292)"/>
<path d="M0 0 C0.33 0 0.66 0 1 0 C1.33 2.64 1.66 5.28 2 8 C2.99 8 3.98 8 5 8 C5 10.31 5 12.62 5 15 C3.02 15 1.04 15 -1 15 C-0.67 10.05 -0.34 5.1 0 0 Z " fill="#CA2D0F" transform="translate(308,294)"/>
<path d="M0 0 C0.66 0.33 1.32 0.66 2 1 C-2.46351289 6.22325977 -7.0744893 11.20922972 -12 16 C-12.33 15.01 -12.66 14.02 -13 13 C-11.5625 10.8125 -11.5625 10.8125 -10 9 C-9.34 9.33 -8.68 9.66 -8 10 C-8 9.34 -8 8.68 -8 8 C-7.34 8 -6.68 8 -6 8 C-5.938125 7.4225 -5.87625 6.845 -5.8125 6.25 C-4.67972699 3.11309013 -2.65802405 1.90832496 0 0 Z " fill="#B24B2A" transform="translate(380,200)"/>
<path d="M0 0 C-0.49658297 5.66104589 -1.54510684 9.87674471 -4 15 C-4.12375 14.46375 -4.2475 13.9275 -4.375 13.375 C-5.12206016 10.5361714 -6.05303364 7.77776798 -7 5 C-2.25 0 -2.25 0 0 0 Z " fill="#B75B50" transform="translate(417,182)"/>
<path d="M0 0 C1.98 0 3.96 0 6 0 C5.01 0.495 5.01 0.495 4 1 C4 1.99 4 2.98 4 4 C5.65 3.67 7.3 3.34 9 3 C10.00926479 7.15626368 10.10239579 11.04365094 10.0625 15.3125 C10.05347656 16.56675781 10.04445313 17.82101563 10.03515625 19.11328125 C10.02355469 20.06589844 10.01195312 21.01851562 10 22 C9.67 22 9.34 22 9 22 C8.93941406 21.09636719 8.87882812 20.19273437 8.81640625 19.26171875 C8.69072266 17.49248047 8.69072266 17.49248047 8.5625 15.6875 C8.48128906 14.51574219 8.40007812 13.34398437 8.31640625 12.13671875 C8.1132629 8.97409042 8.1132629 8.97409042 7 6 C4.03 5.505 4.03 5.505 1 5 C0.67 3.35 0.34 1.7 0 0 Z " fill="#E8B158" transform="translate(329,167)"/>
<path d="M0 0 C6.75 0.75 6.75 0.75 9 3 C9 3.99 9 4.98 9 6 C9.66 6 10.32 6 11 6 C11 6.66 11 7.32 11 8 C11.66 8 12.32 8 13 8 C13 8.66 13 9.32 13 10 C9.40852194 8.66602243 6.1156084 7.25016162 3 5 C2.3125 2.875 2.3125 2.875 2 1 C1.34 0.67 0.68 0.34 0 0 Z " fill="#B6524B" transform="translate(278,231)"/>
<path d="M0 0 C2.31 0 4.62 0 7 0 C6.40138258 2.35171131 5.73075648 4.6859378 5 7 C4.01 7.495 4.01 7.495 3 8 C2.01 7.67 1.02 7.34 0 7 C0 4.69 0 2.38 0 0 Z " fill="#C43014" transform="translate(353,263)"/>
<path d="M0 0 C2.31 0 4.62 0 7 0 C7.33 2.31 7.66 4.62 8 7 C7.01 7 6.02 7 5 7 C5 5.35 5 3.7 5 2 C4.34 2 3.68 2 3 2 C3 3.65 3 5.3 3 7 C2.01 6.67 1.02 6.34 0 6 C0 4.02 0 2.04 0 0 Z " fill="#C74F37" transform="translate(338,263)"/>
<path d="M0 0 C4.26737546 0.47415283 6.14301573 2.99650372 9 6 C9.99 6.66 10.98 7.32 12 8 C8.625 7.6875 8.625 7.6875 5 7 C4.34 6.01 3.68 5.02 3 4 C0.36 4.66 -2.28 5.32 -5 6 C-3.35 4.02 -1.7 2.04 0 0 Z " fill="#C07870" transform="translate(331,65)"/>
<path d="M0 0 C3.3 0 6.6 0 10 0 C10 0.33 10 0.66 10 1 C7.03 1 4.06 1 1 1 C2.12534105 2.35618499 2.12534105 2.35618499 5.0625 2.0625 C6.031875 2.041875 7.00125 2.02125 8 2 C8 2.33 8 2.66 8 3 C6.35 3.33 4.7 3.66 3 4 C3.99 4.33 4.98 4.66 6 5 C5.67 5.66 5.34 6.32 5 7 C3.68 7 2.36 7 1 7 C1 8.65 1 10.3 1 12 C0.67 12 0.34 12 0 12 C0 8.04 0 4.08 0 0 Z " fill="#C53116" transform="translate(312,263)"/>
<path d="M0 0 C6.625 -0.125 6.625 -0.125 10 1 C10 1.66 10 2.32 10 3 C10.66 3 11.32 3 12 3 C11.67 3.99 11.34 4.98 11 6 C9.02 6 7.04 6 5 6 C5 4.68 5 3.36 5 2 C3.35 2.33 1.7 2.66 0 3 C0 2.01 0 1.02 0 0 Z " fill="#CD290F" transform="translate(240,264)"/>
<path d="M0 0 C1.32 0.33 2.64 0.66 4 1 C4 3.97 4 6.94 4 10 C2.68 10 1.36 10 0 10 C0 6.7 0 3.4 0 0 Z " fill="#B43B2B" transform="translate(331,154)"/>
<path d="M0 0 C1.61949011 2.57213134 2.04408751 3.67669159 1.625 6.75 C1.41875 7.4925 1.2125 8.235 1 9 C0.34 9 -0.32 9 -1 9 C-1.33 11.64 -1.66 14.28 -2 17 C-2.33 17 -2.66 17 -3 17 C-3 11.72 -3 6.44 -3 1 C-2.01 1.33 -1.02 1.66 0 2 C0 1.34 0 0.68 0 0 Z " fill="#D25134" transform="translate(318,275)"/>
<path d="M0 0 C0.33 0 0.66 0 1 0 C1.05402274 2.10388569 1.09280256 4.20816714 1.125 6.3125 C1.14820313 7.48425781 1.17140625 8.65601563 1.1953125 9.86328125 C1 13 1 13 -1 16 C-0.34 16.66 0.32 17.32 1 18 C0.67 18.99 0.34 19.98 0 21 C-0.33 20.34 -0.66 19.68 -1 19 C-1.99 19 -2.98 19 -4 19 C-4.1875 16.625 -4.1875 16.625 -4 14 C-3.01 13.34 -2.02 12.68 -1 12 C-0.41518879 9.11404054 -0.41518879 9.11404054 -0.3125 5.875 C-0.24675781 4.77929688 -0.18101562 3.68359375 -0.11328125 2.5546875 C-0.07589844 1.71164062 -0.03851563 0.86859375 0 0 Z " fill="#E4826E" transform="translate(259,268)"/>
<path d="M0 0 C0.66 0 1.32 0 2 0 C3.25 7.625 3.25 7.625 1 11 C0.34 11 -0.32 11 -1 11 C-2.25 3.375 -2.25 3.375 0 0 Z " fill="#CF2D0E" transform="translate(341,265)"/>
<path d="M0 0 C1.32 0 2.64 0 4 0 C4.33 0.99 4.66 1.98 5 3 C6.65 3 8.3 3 10 3 C9.0409375 3.1546875 9.0409375 3.1546875 8.0625 3.3125 C7.381875 3.539375 6.70125 3.76625 6 4 C5.67 4.99 5.34 5.98 5 7 C3.35 6.67 1.7 6.34 0 6 C-0.38218767 4.34385343 -0.71395102 2.67542976 -1 1 C-0.67 0.67 -0.34 0.34 0 0 Z " fill="#DA3C1E" transform="translate(241,266)"/>
<path d="M0 0 C6.7410817 1.62715765 6.7410817 1.62715765 8.5625 4.25 C9.8913379 6.79212468 11.00192394 9.31287214 12 12 C8.59048278 10.86349426 7.62363724 9.74186875 5.3125 7.0625 C4.68988281 6.35222656 4.06726563 5.64195312 3.42578125 4.91015625 C2 3 2 3 2 1 C1.34 0.67 0.68 0.34 0 0 Z " fill="#BB6B61" transform="translate(265,218)"/>
<path d="M0 0 C-0.66 0 -1.32 0 -2 0 C-2 0.66 -2 1.32 -2 2 C1.465 1.505 1.465 1.505 5 1 C5.33 1.99 5.66 2.98 6 4 C4.35 4.66 2.7 5.32 1 6 C1 5.34 1 4.68 1 4 C-0.32 4 -1.64 4 -3 4 C-3.33 3.34 -3.66 2.68 -4 2 C-6.01669827 0.86649466 -6.01669827 0.86649466 -8 0 C-4.94736336 -0.98120464 -3.05263664 -0.98120464 0 0 Z " fill="#C05246" transform="translate(306,82)"/>
<path d="M0 0 C0.66 0 1.32 0 2 0 C2 4.62 2 9.24 2 14 C1.34 14 0.68 14 0 14 C-0.19393875 11.85473901 -0.37998676 9.70876323 -0.5625 7.5625 C-0.71912109 5.77005859 -0.71912109 5.77005859 -0.87890625 3.94140625 C-0.91886719 2.97074219 -0.95882813 2.00007813 -1 1 C-0.67 0.67 -0.34 0.34 0 0 Z " fill="#DB2804" transform="translate(407,292)"/>
<path d="M0 0 C0.66 0 1.32 0 2 0 C1.67 4.29 1.34 8.58 1 13 C0.01 12.67 -0.98 12.34 -2 12 C-2.17835515 7.45194365 -1.99785435 4.1205746 0 0 Z " fill="#CF4022" transform="translate(379,276)"/>
<path d="M0 0 C0.66 0 1.32 0 2 0 C3.99027909 2.86600189 5.51947051 5.51616122 6 9 C5.67 9.66 5.34 10.32 5 11 C5.99 11.33 6.98 11.66 8 12 C7.01 13.485 7.01 13.485 6 15 C4.99267601 13.06629769 3.99436712 11.12789694 3 9.1875 C2.443125 8.10855469 1.88625 7.02960938 1.3125 5.91796875 C0 3 0 3 0 0 Z " fill="#C07166" transform="translate(251,192)"/>
<path d="M0 0 C0.66 0.33 1.32 0.66 2 1 C2 1.66 2 2.32 2 3 C1.1028125 3.1546875 1.1028125 3.1546875 0.1875 3.3125 C-2.29861534 4.09385053 -3.22943442 5.14895416 -5 7 C-5.66 7 -6.32 7 -7 7 C-7 7.66 -7 8.32 -7 9 C-8.98 9.66 -10.96 10.32 -13 11 C-13 10.34 -13 9.68 -13 9 C-11.61924657 8.02336952 -10.23013679 7.05635143 -8.80078125 6.15234375 C-5.78264961 4.22100138 -2.90734615 2.09328923 0 0 Z " fill="#B24825" transform="translate(331,93)"/>
<path d="M0 0 C0.33 0.66 0.66 1.32 1 2 C-1 4 -1 4 -3 5 C-3.33 5.66 -3.66 6.32 -4 7 C-4.99 6.34 -5.98 5.68 -7 5 C-7.33 5.99 -7.66 6.98 -8 8 C-9.98 8.33 -11.96 8.66 -14 9 C-10.78468312 5.27023241 -7.53110528 3.81244211 -3 2 C-2.01 1.34 -1.02 0.68 0 0 Z " fill="#BB6D5F" transform="translate(417,68)"/>
<path d="M0 0 C0.99 0 1.98 0 3 0 C1.58707905 4.8274799 -0.42974154 8.7162359 -3 13 C-3.66 12.34 -4.32 11.68 -5 11 C-4.54658132 9.72740489 -4.08704773 8.45698757 -3.625 7.1875 C-3.36976563 6.47980469 -3.11453125 5.77210938 -2.8515625 5.04296875 C-2 3 -2 3 0 0 Z " fill="#C26E62" transform="translate(409,198)"/>
<path d="M0 0 C3.29680965 0.65784963 5.84117922 1.89420573 8.75 3.5625 C9.94882812 4.24505859 9.94882812 4.24505859 11.171875 4.94140625 C11.77515625 5.29074219 12.3784375 5.64007813 13 6 C8.99788181 7.3340394 6.92036356 6.40012984 3 5 C1.0625 3.5 1.0625 3.5 0 2 C0 1.34 0 0.68 0 0 Z " fill="#B14625" transform="translate(310,228)"/>
<path d="M0 0 C0.33 0 0.66 0 1 0 C1.10331031 7.42686315 0.99862699 14.63512596 0 22 C-1.625 20.4375 -1.625 20.4375 -3 18 C-2.25 14.9375 -2.25 14.9375 -1.6171875 13.1484375 C-0.39371686 8.88952073 -0.30268176 4.40481617 0 0 Z " fill="#B95B2D" transform="translate(344,152)"/>
<path d="M0 0 C0 0.99 0 1.98 0 3 C-1.45804169 3.81302325 -2.91644315 4.62540131 -4.375 5.4375 C-5.59316406 6.11619141 -5.59316406 6.11619141 -6.8359375 6.80859375 C-8.20996622 7.5650536 -9.59709261 8.29854631 -11 9 C-11.33 8.01 -11.66 7.02 -12 6 C-11 5 -11 5 -8.4375 4.9375 C-7.2309375 4.9684375 -7.2309375 4.9684375 -6 5 C-6 4.01 -6 3.02 -6 2 C-2.25 0 -2.25 0 0 0 Z " fill="#B36255" transform="translate(383,234)"/>
<path d="M0 0 C1.9375 0.625 1.9375 0.625 4 2 C4.75 5.125 4.75 5.125 5 8 C3.35 7.67 1.7 7.34 0 7 C0 4.69 0 2.38 0 0 Z " fill="#CE2A15" transform="translate(323,301)"/>
<path d="M0 0 C3.03918463 4.55877695 4.29408315 9.5983209 3.625 15.0625 C3.41875 15.701875 3.2125 16.34125 3 17 C2.67 17 2.34 17 2 17 C0.7017874 11.23918159 -0.25706972 5.91260345 0 0 Z " fill="#DC8168" transform="translate(339,273)"/>
<path d="M0 0 C2.64 0 5.28 0 8 0 C8.33 1.65 8.66 3.3 9 5 C9.99 5.33 10.98 5.66 12 6 C7.01208429 5.52496041 3.9767259 4.0298864 0 1 C0 0.67 0 0.34 0 0 Z " fill="#BF7566" transform="translate(307,251)"/>
<path d="M0 0 C0.33 0 0.66 0 1 0 C1.3351658 2.12471175 1.66807829 4.24977905 2 6.375 C2.185625 7.55835938 2.37125 8.74171875 2.5625 9.9609375 C3 13 3 13 3 15 C2.01 15 1.02 15 0 15 C0 10.05 0 5.1 0 0 Z " fill="#D0513A" transform="translate(347,281)"/>
<path d="M0 0 C6.93 0 13.86 0 21 0 C21 0.99 21 1.98 21 3 C20.01 2.67 19.02 2.34 18 2 C16.59335074 1.85507877 15.1818867 1.75371069 13.76953125 1.68359375 C12.56586914 1.62075195 12.56586914 1.62075195 11.33789062 1.55664062 C10.50451172 1.51732422 9.67113281 1.47800781 8.8125 1.4375 C7.96751953 1.39431641 7.12253906 1.35113281 6.25195312 1.30664062 C4.16815567 1.20068482 2.08409897 1.0998498 0 1 C0 0.67 0 0.34 0 0 Z " fill="#B24E27" transform="translate(321,143)"/>
<path d="M0 0 C-9.1 7 -9.1 7 -12 7 C-12 6.01 -12 5.02 -12 4 C-10.68 4 -9.36 4 -8 4 C-7.67 3.01 -7.34 2.02 -7 1 C-4.53721199 -0.231394 -2.7204945 -0.07159196 0 0 Z " fill="#AF4524" transform="translate(396,91)"/>
<path d="M0 0 C4.95 0 9.9 0 15 0 C11.70915707 2.19389529 9.90732442 2.69354318 6 3 C2.625 2.0625 2.625 2.0625 0 1 C0 0.67 0 0.34 0 0 Z " fill="#CD8277" transform="translate(325,260)"/>
<path d="M0 0 C2.76544722 3.45680903 4.84921278 7.14341602 7 11 C6.01 11.495 6.01 11.495 5 12 C0.09846827 5.92560175 0.09846827 5.92560175 -0.3125 2.0625 C-0.209375 1.381875 -0.10625 0.70125 0 0 Z " fill="#DB7F51" transform="translate(275,190)"/>
<path d="M0 0 C2.0625 0.4375 2.0625 0.4375 4 1 C-0.30769231 4.93846154 -0.30769231 4.93846154 -3.8125 5.25 C-4.534375 5.1675 -5.25625 5.085 -6 5 C-5.195625 4.360625 -4.39125 3.72125 -3.5625 3.0625 C-1.7249496 1.59396498 -1.7249496 1.59396498 0 0 Z " fill="#BC6A61" transform="translate(322,72)"/>
<path d="M0 0 C0 1.98 0 3.96 0 6 C-0.99 5.67 -1.98 5.34 -3 5 C-3 4.34 -3 3.68 -3 3 C-4.32 2.67 -5.64 2.34 -7 2 C-1.125 0 -1.125 0 0 0 Z " fill="#E42610" transform="translate(321,265)"/>
<path d="M0 0 C3.41021743 0.78697325 6.68885166 1.87119943 10 3 C10 3.66 10 4.32 10 5 C5.2482602 4.56802365 3.07999946 3.67230705 0 0 Z " fill="#B14927" transform="translate(342,97)"/>
<path d="M0 0 C0 0.66 0 1.32 0 2 C-2.64 2.33 -5.28 2.66 -8 3 C-8 2.34 -8 1.68 -8 1 C-3.375 -1.125 -3.375 -1.125 0 0 Z " fill="#A83E32" transform="translate(312,81)"/>
<path d="M0 0 C0.99 0 1.98 0 3 0 C3.59732819 2.76264289 4 5.16032769 4 8 C3.34 8 2.68 8 2 8 C0.74335022 5.09399739 0 3.20395416 0 0 Z " fill="#CF5036" transform="translate(414,292)"/>
<path d="M0 0 C0.33 1.32 0.66 2.64 1 4 C0.505 3.690625 0.01 3.38125 -0.5 3.0625 C-3.97986781 1.58355618 -7.24028509 1.37597149 -11 1 C-11 0.67 -11 0.34 -11 0 C-3.57142857 -1.28571429 -3.57142857 -1.28571429 0 0 Z " fill="#D26048" transform="translate(258,264)"/>
<path d="M0 0 C2.18975773 3.28463659 2.99806563 6.20696275 4 10 C3.01 9.67 2.02 9.34 1 9 C-0.4783226 6.04335481 -0.06032783 3.25770263 0 0 Z " fill="#D66B51" transform="translate(413,271)"/>
<path d="M0 0 C1.5625 1.1875 1.5625 1.1875 3 3 C2.6875 5.6875 2.6875 5.6875 2 8 C1.34 8 0.68 8 0 8 C-0.38063221 5.6739143 -0.71269945 3.33944736 -1 1 C-0.67 0.67 -0.34 0.34 0 0 Z " fill="#D83614" transform="translate(316,269)"/>
<path d="M0 0 C7.42857143 -0.28571429 7.42857143 -0.28571429 11 2 C6.70700357 3.26264601 4.12168689 2.62950412 0 1 C0 0.67 0 0.34 0 0 Z " fill="#B04123" transform="translate(285,100)"/>
<path d="M0 0 C3.3 1.65 6.6 3.3 10 5 C6.1851221 6.27162597 4.6068725 5.64661571 1 4 C0.67 2.68 0.34 1.36 0 0 Z " fill="#C16D66" transform="translate(343,73)"/>
<path d="M0 0 C0.99 0.33 1.98 0.66 3 1 C3 3.64 3 6.28 3 9 C0.90250005 6.64031256 0.03094296 5.45383006 -0.1875 2.25 C-0.125625 1.5075 -0.06375 0.765 0 0 Z " fill="#DA2C07" transform="translate(318,270)"/>
<path d="M0 0 C3.375 0.25 3.375 0.25 7 1 C8.4375 3.0625 8.4375 3.0625 9 5 C5.54074837 3.7508258 2.85306797 2.32472205 0 0 Z " fill="#B34E29" transform="translate(307,223)"/>
<path d="M0 0 C-0.1875 1.875 -0.1875 1.875 -1 4 C-3.5625 5.25 -3.5625 5.25 -6 6 C-5.6875 4.125 -5.6875 4.125 -5 2 C-2 0 -2 0 0 0 Z " fill="#B04523" transform="translate(376,212)"/>
<path d="M0 0 C1.32 0.33 2.64 0.66 4 1 C3.67 1.99 3.34 2.98 3 4 C1.35 4 -0.3 4 -2 4 C-1.34 2.68 -0.68 1.36 0 0 Z " fill="#B44225" transform="translate(331,124)"/>
<path d="M0 0 C0.66 0 1.32 0 2 0 C2.33 1.65 2.66 3.3 3 5 C1.35 5.33 -0.3 5.66 -2 6 C-2.33 5.01 -2.66 4.02 -3 3 C-2.01 3 -1.02 3 0 3 C0 2.01 0 1.02 0 0 Z " fill="#B74C2C" transform="translate(338,123)"/>
<path d="M0 0 C4.95 0.99 4.95 0.99 10 2 C10 2.33 10 2.66 10 3 C7.69 2.67 5.38 2.34 3 2 C3 2.66 3 3.32 3 4 C2.34 4 1.68 4 1 4 C0.67 2.68 0.34 1.36 0 0 Z " fill="#CE8879" transform="translate(268,79)"/>
<path d="M0 0 C2.97 0.495 2.97 0.495 6 1 C6 1.66 6 2.32 6 3 C6.66 3 7.32 3 8 3 C8 3.66 8 4.32 8 5 C4.62496331 3.8141763 2.35277269 2.72426311 0 0 Z " fill="#BF6E64" transform="translate(283,236)"/>
<path d="M0 0 C0 3.99904969 -1.72586967 5.80200422 -4 9 C-4.33 8.01 -4.66 7.02 -5 6 C-3.59554165 3.7363436 -1.8032087 1.9791315 0 0 Z " fill="#B14B27" transform="translate(383,202)"/>
<path d="M0 0 C0.33 0.66 0.66 1.32 1 2 C1.66 2 2.32 2 3 2 C3 4.64 3 7.28 3 10 C0.70366176 6.55549263 0.45983515 4.06187717 0 0 Z " fill="#C98278" transform="translate(248,182)"/>
<path d="M0 0 C1 2 1 2 0.1875 5.5625 C-1 9 -1 9 -3 10 C-2.69201674 8.51988629 -2.378482 7.04092675 -2.0625 5.5625 C-1.88847656 4.73878906 -1.71445312 3.91507813 -1.53515625 3.06640625 C-1 1 -1 1 0 0 Z " fill="#B24324" transform="translate(395,177)"/>
</svg>
